<svg xmlns="http://www.w3.org/2000/svg" xmlns:xlink="http://www.w3.org/1999/xlink" width="45.804" height="45.804" viewBox="0 0 45.804 45.804"><defs><clipPath id="a"><rect width="45.804" height="45.804" fill="#a0d8c3"/></clipPath></defs><g clip-path="url(#a)"><path d="M21.023,0h3.668c.025.064.079.076.141.084.87.122,1.75.193,2.606.38a23.594,23.594,0,0,1,6.679,2.491,22.8,22.8,0,0,1,6.34,5.269,22.669,22.669,0,0,1,5.1,11.574,3.382,3.382,0,0,0,.248,1.4V24.69a7,7,0,0,0-.281,1.756,28.028,28.028,0,0,1-1.311,4.763A22.85,22.85,0,0,1,39.639,38.5a22.29,22.29,0,0,1-2.694,2.445,22.777,22.777,0,0,1-6.042,3.4,23.339,23.339,0,0,1-5.23,1.3c-.354.048-.739-.053-1.071.152H21.113c-.05-.1-.149-.089-.233-.088a10.879,10.879,0,0,1-2.27-.287,22.74,22.74,0,0,1-7.263-2.758A23.3,23.3,0,0,1,1.276,30.53,22.16,22.16,0,0,1,.158,25.8C.11,25.436.211,25.037,0,24.69V21.023c.085-.035.089-.111.089-.185A14.22,14.22,0,0,1,.458,18.23a21.5,21.5,0,0,1,1.893-5.468A22.458,22.458,0,0,1,5.017,8.608,23.8,23.8,0,0,1,8.9,4.769,21.876,21.876,0,0,1,14.24,1.7,22.667,22.667,0,0,1,19.616.245,3.133,3.133,0,0,0,21.023,0m-6.5,21.015a1.8,1.8,0,0,0-.815.182,1.848,1.848,0,0,0-.533,3.023c2.025,2.042,4.086,4.049,6.088,6.114a1.945,1.945,0,0,0,2.982-.022c.3-.309.573-.643.874-.946,3.818-3.831,7.661-7.639,11.467-11.481A1.778,1.778,0,0,0,34,15.033a1.942,1.942,0,0,0-2.365.475c-3.509,3.527-7.052,7.021-10.571,10.537-.276.276-.431.287-.709,0-1.436-1.472-2.895-2.921-4.339-4.383a2.313,2.313,0,0,0-1.49-.651" transform="translate(0 0.001)" fill="#a0d8c3"/></g></svg>