<svg xmlns="http://www.w3.org/2000/svg" xmlns:xlink="http://www.w3.org/1999/xlink" width="245" height="201" viewBox="0 0 245 201"><defs><clipPath id="a"><rect width="245" height="201" transform="translate(1083 799)" fill="#e2f2e9"/></clipPath></defs><g transform="translate(-1083 -799)" clip-path="url(#a)"><g transform="matrix(0.695, -0.719, 0.719, 0.695, 4613.856, -9516.838)"><line x2="366.47" transform="translate(-10054.5 4624.5)" fill="none" stroke="rgba(42,65,94,0.15)" stroke-width="2"/><line x2="366.47" transform="translate(-10054.5 4637.5)" fill="none" stroke="rgba(42,65,94,0.15)" stroke-width="2"/><line x2="366.47" transform="translate(-10054.5 4649.5)" fill="none" stroke="rgba(42,65,94,0.15)" stroke-width="2"/><line x2="366.47" transform="translate(-10054.5 4662.5)" fill="none" stroke="rgba(42,65,94,0.15)" stroke-width="2"/><line x2="366.47" transform="translate(-10054.5 4674.5)" fill="none" stroke="rgba(42,65,94,0.15)" stroke-width="2"/><line x2="366.47" transform="translate(-10054.5 4687.5)" fill="none" stroke="rgba(42,65,94,0.15)" stroke-width="2"/><line x2="366.47" transform="translate(-10054.5 4699.5)" fill="none" stroke="rgba(42,65,94,0.15)" stroke-width="2"/><line x2="366.47" transform="translate(-10054.5 4712.5)" fill="none" stroke="rgba(42,65,94,0.15)" stroke-width="2"/><line x2="366.47" transform="translate(-10054.095 4811.474)" fill="none" stroke="rgba(42,65,94,0.15)" stroke-width="2"/><line x2="366.47" transform="translate(-10054.5 4724.5)" fill="none" stroke="rgba(42,65,94,0.15)" stroke-width="2"/><line x2="366.47" transform="translate(-10054.095 4823.474)" fill="none" stroke="rgba(42,65,94,0.15)" stroke-width="2"/><line x2="366.47" transform="translate(-10054.5 4737.5)" fill="none" stroke="rgba(42,65,94,0.15)" stroke-width="2"/><line x2="366.47" transform="translate(-10054.095 4836.474)" fill="none" stroke="rgba(42,65,94,0.15)" stroke-width="2"/><line x2="366.47" transform="translate(-10054.5 4749.5)" fill="none" stroke="rgba(42,65,94,0.15)" stroke-width="2"/><line x2="366.47" transform="translate(-10054.095 4848.474)" fill="none" stroke="rgba(42,65,94,0.15)" stroke-width="2"/><line x2="366.47" transform="translate(-10054.5 4762.5)" fill="none" stroke="rgba(42,65,94,0.15)" stroke-width="2"/><line x2="366.47" transform="translate(-10054.095 4861.474)" fill="none" stroke="rgba(42,65,94,0.15)" stroke-width="2"/><line x2="366.47" transform="translate(-10053.438 4911.096)" fill="none" stroke="rgba(42,65,94,0.15)" stroke-width="2"/><line x2="366.47" transform="translate(-10054.5 4774.5)" fill="none" stroke="rgba(42,65,94,0.15)" stroke-width="2"/><line x2="366.47" transform="translate(-10054.095 4873.474)" fill="none" stroke="rgba(42,65,94,0.15)" stroke-width="2"/><line x2="366.47" transform="translate(-10053.438 4923.096)" fill="none" stroke="rgba(42,65,94,0.15)" stroke-width="2"/><line x2="366.47" transform="translate(-10054.5 4787.5)" fill="none" stroke="rgba(42,65,94,0.15)" stroke-width="2"/><line x2="366.47" transform="translate(-10054.095 4886.474)" fill="none" stroke="rgba(42,65,94,0.15)" stroke-width="2"/><line x2="366.47" transform="translate(-10053.438 4936.096)" fill="none" stroke="rgba(42,65,94,0.15)" stroke-width="2"/><line x2="366.47" transform="translate(-10054.5 4799.5)" fill="none" stroke="rgba(42,65,94,0.15)" stroke-width="2"/><line x2="366.47" transform="translate(-10054.095 4898.474)" fill="none" stroke="rgba(42,65,94,0.15)" stroke-width="2"/><line x2="366.47" transform="translate(-10053.438 4948.096)" fill="none" stroke="rgba(42,65,94,0.15)" stroke-width="2"/></g></g></svg>