<svg xmlns="http://www.w3.org/2000/svg" xmlns:xlink="http://www.w3.org/1999/xlink" width="351.842" height="84.701" viewBox="0 0 351.842 84.701"><defs><clipPath id="a"><rect width="351.842" height="84.701" fill="none"/></clipPath></defs><g clip-path="url(#a)"><path d="M162.384,445.3h-1.5a.21.21,0,0,0-.207.207v6.345a2.156,2.156,0,0,1-.734,1.977,2.834,2.834,0,0,1-1.529.383c-1.562,0-2.2-.765-2.2-2.3v-6.408a.211.211,0,0,0-.207-.207h-2.136a.212.212,0,0,0-.208.207v6.759a3.247,3.247,0,0,0,1.18,3.029,5.273,5.273,0,0,0,3.38.909,5.188,5.188,0,0,0,2.758-.606,3.207,3.207,0,0,0,1.61-2.933v-7.158a.211.211,0,0,0-.207-.207m13.329,0H167.2a.211.211,0,0,0-.207.207v1.451a.211.211,0,0,0,.207.207h2.981v8.561a.211.211,0,0,0,.207.207h2.136a.211.211,0,0,0,.207-.207v-8.561h2.981a.211.211,0,0,0,.207-.207v-1.451a.211.211,0,0,0-.207-.207m-50.589,4.814,3.236-4.32a.6.6,0,0,0,.144-.3c0-.159-.159-.192-.287-.192h-1.722c-.079,0-.111.032-.159.1l-2.343,3.252-2.167-3.252a.231.231,0,0,0-.192-.1H119.21c-.128,0-.271.048-.271.207a.428.428,0,0,0,.111.224l3.427,4.75-3.555,4.91a.584.584,0,0,0-.143.319c0,.175.159.224.3.224h1.691a.161.161,0,0,0,.175-.1l2.615-3.873,2.535,3.873a.2.2,0,0,0,.175.1h2.455c.112,0,.287-.032.287-.176a.814.814,0,0,0-.175-.351Zm18.033,1.036,1.291-3.937,1.148,3.937Zm3.221-5.1c-.224-.654-.272-.876-1-.876h-1.4c-.574,0-.749.144-.924.686l-3.156,9.628a.733.733,0,0,0-.064.255c0,.159.143.192.271.192h1.45a.227.227,0,0,0,.207-.144l.973-3.045h3.252l.956,3.045a.23.23,0,0,0,.208.144h2.1c.144,0,.287-.049.287-.224v-.08c-.016-.047-.049-.111-.065-.159Zm93.205-.749h-8.513a.212.212,0,0,0-.208.207v1.451a.212.212,0,0,0,.208.207h2.98v8.561a.211.211,0,0,0,.207.207h2.136a.211.211,0,0,0,.208-.207v-8.561h2.981a.21.21,0,0,0,.206-.207v-1.451a.21.21,0,0,0-.206-.207m13.789,0h-1.689c-.1,0-.127.048-.176.127l-2.422,4.448-2.439-4.464a.174.174,0,0,0-.176-.111H244.03c-.127,0-.271,0-.271.16a.218.218,0,0,0,.048.143l3.7,6.249v3.875a.211.211,0,0,0,.207.207h2.136a.211.211,0,0,0,.207-.207v-4.177l3.507-5.9a.442.442,0,0,0,.063-.19c0-.128-.143-.16-.255-.16m-144.653,5.85,1.291-3.937,1.148,3.937Zm3.22-5.1c-.223-.654-.271-.876-1-.876h-1.4c-.573,0-.748.144-.924.686l-3.156,9.628a.735.735,0,0,0-.063.255c0,.159.144.192.271.192h1.451a.228.228,0,0,0,.207-.144l.972-3.045h3.252l.957,3.045a.228.228,0,0,0,.207.144h2.1c.144,0,.287-.049.287-.224v-.08c-.016-.047-.048-.111-.063-.159Zm101.719,3.634h-.75v-2.917h.926c.988,0,1.626.366,1.626,1.435,0,1.164-.749,1.482-1.8,1.482m2.153.941a2.4,2.4,0,0,0,2.2-2.6,2.45,2.45,0,0,0-.829-2.009,3.849,3.849,0,0,0-2.663-.717h-3.954a.211.211,0,0,0-.207.207v10.219a.211.211,0,0,0,.207.207H212.7a.21.21,0,0,0,.206-.207V451.15h.447l2.981,4.687a.2.2,0,0,0,.175.1h2.424a.243.243,0,0,0,.27-.24.4.4,0,0,0-.095-.239ZM189.534,445.3H187.4a.211.211,0,0,0-.208.207v4.049h-4.144v-4.049a.211.211,0,0,0-.207-.207H180.7a.212.212,0,0,0-.208.207v10.219a.212.212,0,0,0,.208.207h2.136a.211.211,0,0,0,.207-.207v-4.3h4.144v4.3a.211.211,0,0,0,.208.207h2.135a.212.212,0,0,0,.208-.207V445.507a.212.212,0,0,0-.208-.207m12.389,8.306a2.707,2.707,0,0,1-1.929.733,2.485,2.485,0,0,1-1.849-.717,4.056,4.056,0,0,1-.813-2.933c0-1.929.43-3.65,2.725-3.65,2.074,0,2.7,1.593,2.7,3.411,0,1-.049,2.407-.83,3.156m-1.866-8.433a5.156,5.156,0,0,0-3.825,1.323,5.808,5.808,0,0,0-1.53,4.176,5.909,5.909,0,0,0,1.563,4.209,5.042,5.042,0,0,0,3.778,1.323,5.145,5.145,0,0,0,3.794-1.323,5.718,5.718,0,0,0,1.546-4.161,5.871,5.871,0,0,0-1.578-4.257,5.007,5.007,0,0,0-3.746-1.291m26.037.127h-2.136a.21.21,0,0,0-.207.207v10.219a.21.21,0,0,0,.207.207h2.136a.21.21,0,0,0,.206-.207V445.507a.21.21,0,0,0-.206-.207M17.919,454.068H13.663v-2.79H16.8a.211.211,0,0,0,.207-.207v-1.434a.21.21,0,0,0-.207-.207h-3.14v-2.264H17.6a.211.211,0,0,0,.207-.207v-1.451a.211.211,0,0,0-.207-.207H11.319a.211.211,0,0,0-.207.207v10.219a.211.211,0,0,0,.207.207h6.6a.211.211,0,0,0,.207-.207v-1.451a.211.211,0,0,0-.207-.207m34.965-4.385h-.75v-2.917h.924c.989,0,1.626.366,1.626,1.435,0,1.164-.748,1.482-1.8,1.482m2.152.941a2.4,2.4,0,0,0,2.2-2.6,2.451,2.451,0,0,0-.83-2.009,3.846,3.846,0,0,0-2.662-.717H49.792a.211.211,0,0,0-.207.207v10.219a.211.211,0,0,0,.207.207h2.136a.211.211,0,0,0,.207-.207V451.15h.447l2.98,4.687a.2.2,0,0,0,.176.1h2.423a.243.243,0,0,0,.271-.24.4.4,0,0,0-.1-.239Zm-10.491,3.444H40.289v-2.79h3.141a.211.211,0,0,0,.207-.207v-1.434a.21.21,0,0,0-.207-.207H40.289v-2.264h3.938a.211.211,0,0,0,.207-.207v-1.451a.211.211,0,0,0-.207-.207H37.945a.211.211,0,0,0-.207.207v10.219a.211.211,0,0,0,.207.207h6.6a.211.211,0,0,0,.207-.207v-1.451a.211.211,0,0,0-.207-.207m-15.05-1.084a2.56,2.56,0,0,1-2.375,1.084h-1.61v-6.9h1.706c2.136,0,2.917,1.563,2.917,3.491a3.868,3.868,0,0,1-.637,2.328M27.278,445.3H23.166a.211.211,0,0,0-.207.207v10.219a.211.211,0,0,0,.207.207h3.779a5.714,5.714,0,0,0,4.3-1.451,5.432,5.432,0,0,0,1.515-3.938,5.516,5.516,0,0,0-1.275-3.713,5.4,5.4,0,0,0-4.209-1.531m75.221,0H93.987a.211.211,0,0,0-.207.207v1.451a.211.211,0,0,0,.207.207h2.981v8.561a.211.211,0,0,0,.207.207h2.136a.211.211,0,0,0,.207-.207v-8.561H102.5a.211.211,0,0,0,.207-.207v-1.451a.211.211,0,0,0-.207-.207m-96.33,0H.207a.211.211,0,0,0-.207.207v10.219a.211.211,0,0,0,.207.207H2.343a.211.211,0,0,0,.207-.207v-4.177H5.532a.211.211,0,0,0,.207-.207v-1.45a.211.211,0,0,0-.207-.208H2.55v-2.518H6.17a.211.211,0,0,0,.207-.207v-1.451a.211.211,0,0,0-.207-.207m76.671,8.768H79.223v-8.561a.211.211,0,0,0-.207-.207H76.88a.211.211,0,0,0-.207.207v10.219a.211.211,0,0,0,.207.207h5.961a.211.211,0,0,0,.207-.207v-1.451a.211.211,0,0,0-.207-.207m-17.17-2.918,1.291-3.937,1.147,3.937Zm3.22-5.1c-.224-.654-.271-.876-1-.876h-1.4c-.574,0-.748.144-.924.686L62.4,455.487a.735.735,0,0,0-.063.255c0,.159.144.192.271.192h1.451a.228.228,0,0,0,.207-.144l.972-3.045h3.252l.957,3.045a.227.227,0,0,0,.207.144h2.1c.144,0,.287-.049.287-.224v-.08c-.016-.047-.048-.111-.064-.159Z" transform="translate(0 -394.807)" fill="#221f20"/><path d="M120.021,221.321a1.324,1.324,0,1,0,.922.388,1.26,1.26,0,0,0-.922-.388m3.006,0a1.324,1.324,0,1,0,.922.388,1.26,1.26,0,0,0-.922-.388m8.132-7.137-1.6-2.6q-.571.351-1.1.692t-1.078.709l1.456,2.176.564.83c.14.209.248.379.322.507a1.264,1.264,0,0,1,.138.3.9.9,0,0,1,.028.222.309.309,0,0,1-.239.305,2.133,2.133,0,0,1-.664.082h-3.614v2.12h4.463a3.406,3.406,0,0,0,1.179-.184,2.226,2.226,0,0,0,.812-.5,2.022,2.022,0,0,0,.47-.737,2.6,2.6,0,0,0,.157-.9,3.093,3.093,0,0,0-.323-1.273,17.7,17.7,0,0,0-.968-1.752m-24.1,1.772a2.033,2.033,0,0,1-.507.11c-.167.012-.33.018-.489.018a1.381,1.381,0,0,1-.636-.128,1.159,1.159,0,0,1-.4-.321,1.1,1.1,0,0,1-.2-.44,2.15,2.15,0,0,1-.056-.467,1.31,1.31,0,0,1,.341-.943,1.352,1.352,0,0,1,1.024-.356h.922Zm16.777-3.763h-2.416v5.219H110.085c-.271,0-.442-.052-.516-.157a1.072,1.072,0,0,1-.111-.58v-5.514h-3.134a5,5,0,0,0-1.355.194,3.553,3.553,0,0,0-1.254.636,3.4,3.4,0,0,0-.922,1.143,3.734,3.734,0,0,0-.36,1.716,3.33,3.33,0,0,0,.379,1.686,3.046,3.046,0,0,0,.921,1.025,3.376,3.376,0,0,0,1.153.507,4.96,4.96,0,0,0,1.07.138,4.726,4.726,0,0,0,.663-.047c.222-.03.437-.07.646-.119a1.921,1.921,0,0,0,.415.746,2,2,0,0,0,.617.452,2.768,2.768,0,0,0,.766.231,5.526,5.526,0,0,0,.856.064h13.919Zm108.9,9.421a.812.812,0,0,1-.709.3,1.1,1.1,0,0,1-1.06-.658,3.92,3.92,0,0,1-.323-1.72h.94a1.286,1.286,0,0,1,.692.167,1.364,1.364,0,0,1,.414.381,1.326,1.326,0,0,1,.2.437,1.565,1.565,0,0,1,.056.334,1.282,1.282,0,0,1-.213.763m-2.093-5.2a3.42,3.42,0,0,1,.341-1.595,1.082,1.082,0,0,1,1.006-.655.807.807,0,0,1,.7.332,1.409,1.409,0,0,1,.241.848,2.925,2.925,0,0,1-.1.765,1.856,1.856,0,0,1-.323.664,1.614,1.614,0,0,1-.571.461,1.82,1.82,0,0,1-.83.176h-.461Zm-41.612-.46a2.034,2.034,0,0,1-.507.11c-.167.012-.33.018-.489.018a1.389,1.389,0,0,1-.637-.128,1.166,1.166,0,0,1-.4-.321,1.1,1.1,0,0,1-.2-.44,2.143,2.143,0,0,1-.056-.467,1.31,1.31,0,0,1,.341-.943,1.352,1.352,0,0,1,1.024-.356h.922Zm57.912,1.456H234.591v-.074a3.114,3.114,0,0,0,.517-1.06,4.544,4.544,0,0,0,.147-1.153,3.471,3.471,0,0,0-.175-1.034,3.166,3.166,0,0,0-.553-1.022,3,3,0,0,0-.987-.784,3.18,3.18,0,0,0-1.475-.314,3.074,3.074,0,0,0-2.609,1.245,5.7,5.7,0,0,0-.931,3.476v.719h-7.412a1.993,1.993,0,0,1-1.245-.3,1.2,1.2,0,0,1-.36-.977v-3.947h-2.4v4.149q0,.683-.249.876a1.471,1.471,0,0,1-.875.194h-6.933a1.556,1.556,0,0,1-1.144-.3,1.472,1.472,0,0,1-.258-.977v-3.947h-2.4v4.149c0,.456-.082.747-.249.876a1.471,1.471,0,0,1-.875.194H192.058c-.272,0-.443-.052-.517-.157a1.072,1.072,0,0,1-.111-.58v-5.514H188.3a5,5,0,0,0-1.355.194,3.562,3.562,0,0,0-1.254.636,3.406,3.406,0,0,0-.922,1.143,3.736,3.736,0,0,0-.36,1.716,3.33,3.33,0,0,0,.379,1.686,3.046,3.046,0,0,0,.921,1.025,3.388,3.388,0,0,0,1.153.507,4.97,4.97,0,0,0,1.07.138,4.715,4.715,0,0,0,.663-.047c.223-.03.438-.07.647-.119a1.916,1.916,0,0,0,.414.746,2.029,2.029,0,0,0,.617.452,2.77,2.77,0,0,0,.765.231,5.552,5.552,0,0,0,.858.064h12.627c.245,0,.494-.009.746-.028a3.961,3.961,0,0,0,.728-.119,2.464,2.464,0,0,0,.664-.286,1.827,1.827,0,0,0,.535-.508,1.569,1.569,0,0,0,.83.765,3.093,3.093,0,0,0,1.029.176h7.324c.246,0,.495-.009.747-.028a3.977,3.977,0,0,0,.728-.119,2.478,2.478,0,0,0,.664-.286,1.812,1.812,0,0,0,.535-.508,1.478,1.478,0,0,0,.415.48,2.076,2.076,0,0,0,.525.285,2.572,2.572,0,0,0,.572.139,4.65,4.65,0,0,0,.549.037h7.416v.129a7.949,7.949,0,0,0,.193,1.825,3.784,3.784,0,0,0,.609,1.374,2.727,2.727,0,0,0,1.078.866,4.437,4.437,0,0,0,3.052.065,2.812,2.812,0,0,0,.986-.637,2.532,2.532,0,0,0,.581-.931,3.276,3.276,0,0,0,.194-1.125c0-.073-.007-.172-.018-.3a2.142,2.142,0,0,0-.084-.4,2.772,2.772,0,0,0-.176-.433,1.314,1.314,0,0,0-.294-.387v-.055h14.7V206.367h-2.4Zm-88.908,0h-3.319a9.068,9.068,0,0,0-.323-2.148,5.1,5.1,0,0,0-.894-1.8,4.244,4.244,0,0,0-1.576-1.226,5.539,5.539,0,0,0-2.351-.452,6.813,6.813,0,0,0-1.495.166,11.5,11.5,0,0,0-1.162.313v2.139q.332-.092.664-.157c.222-.042.431-.08.627-.11s.375-.052.535-.065.29-.019.388-.019a3.882,3.882,0,0,1,1.485.249,2.459,2.459,0,0,1,.968.692,2.939,2.939,0,0,1,.552,1.06,6.363,6.363,0,0,1,.241,1.355h-14.71a1.05,1.05,0,0,1-.654-.176c-.155-.116-.23-.389-.23-.82v-10.05h-2.4v10.382a3.618,3.618,0,0,0,.212,1.328,2.141,2.141,0,0,0,.59.858,2.256,2.256,0,0,0,.9.461,4.5,4.5,0,0,0,1.152.138h23.191v-7.339h-2.4Zm58.262,3.909a1.323,1.323,0,1,0,.922.388,1.261,1.261,0,0,0-.922-.388M66.182,217.412H60.687a6.64,6.64,0,0,1,.673-1.153,5.9,5.9,0,0,1,.866-.959,4.135,4.135,0,0,1,1.015-.664,2.692,2.692,0,0,1,1.134-.248,1.557,1.557,0,0,1,1.4.608,2.733,2.733,0,0,1,.407,1.548Zm25.575,0H84.178a2.758,2.758,0,0,1-.709-.074.854.854,0,0,1-.406-.222.722.722,0,0,1-.175-.4,4.018,4.018,0,0,1-.037-.58v-9.774h-2.4v9.975q0,.683-.249.876a1.471,1.471,0,0,1-.875.194H68.579v-1.18a4.47,4.47,0,0,0-1.041-3.153,3.812,3.812,0,0,0-2.941-1.125,5.16,5.16,0,0,0-2.194.479,7.524,7.524,0,0,0-1.881,1.245,8.316,8.316,0,0,0-1.466,1.743,9.706,9.706,0,0,0-.969,1.972,1.2,1.2,0,0,1-.922-.341,1.363,1.363,0,0,1-.276-.912v-3.135h-2.4v3.521a1.3,1.3,0,0,1-.075.489.534.534,0,0,1-.24.267,1.007,1.007,0,0,1-.433.11c-.178.012-.4.019-.673.019H41.829a1.923,1.923,0,0,1-.489-.065,1.244,1.244,0,0,1-.442-.212,1.105,1.105,0,0,1-.314-.388,1.353,1.353,0,0,1-.119-.608v-3.135h-2.4V218.5A9.021,9.021,0,0,1,38,219.671a1.863,1.863,0,0,1-.285.812,1.258,1.258,0,0,1-.665.47,4.253,4.253,0,0,1-1.2.166v2.25a8.726,8.726,0,0,0,2.031-.24,3.227,3.227,0,0,0,1.408-.738,3.16,3.16,0,0,0,.836-1.354,7.053,7.053,0,0,0,.3-2.094,1.433,1.433,0,0,0,.738.48c.136.034.255.061.363.079l0,0a1.315,1.315,0,0,0,.278.028H53.035a10.88,10.88,0,0,0,2.047-.157,2.019,2.019,0,0,0,1.274-.8,2.762,2.762,0,0,0,.951.655,3.775,3.775,0,0,0,1.6.3H79.716c.246,0,.5-.009.747-.028a3.977,3.977,0,0,0,.728-.119,2.476,2.476,0,0,0,.664-.286,1.84,1.84,0,0,0,.535-.508,1.594,1.594,0,0,0,.793.765,2.755,2.755,0,0,0,1,.176h9.975V206.367h-2.4Zm127.549,3.909a1.321,1.321,0,1,0,.922.388,1.259,1.259,0,0,0-.922-.388m-44.064-1.789h2.4V206.366h-2.4Zm-4.721-2.12h-2.379V210.9h-2.4v6.51H162.2v2.12h10.714V206.367h-2.4Zm-9.976-9.717a1.321,1.321,0,1,0,.922.386,1.26,1.26,0,0,0-.922-.386m-3,2.617a1.323,1.323,0,1,0-.922-.387,1.257,1.257,0,0,0,.922.387m29.411-.921a1.323,1.323,0,1,0-.922-.388,1.258,1.258,0,0,0,.922.388m21.679-.554h-1.144a.932.932,0,0,1-.709-.2.709.709,0,0,1-.176-.48.676.676,0,0,1,.176-.47.779.779,0,0,1,.6-.194,2.853,2.853,0,0,1,.3.028,3.994,3.994,0,0,1,.489.1V206.2q-.2-.073-.489-.147a2.481,2.481,0,0,0-.618-.075,2.091,2.091,0,0,0-.736.13,1.91,1.91,0,0,0-.628.378,1.837,1.837,0,0,0-.442.617,2.087,2.087,0,0,0-.166.868,2.687,2.687,0,0,0,.047.451,1.14,1.14,0,0,0,.137.415h-.848v1.511h4.2Zm-100.647.554a1.324,1.324,0,1,0-.922-.388,1.259,1.259,0,0,0,.922.388m81.973,0a1.323,1.323,0,1,0-.922-.388,1.255,1.255,0,0,0,.922.388M27.372,217.412H17.084a1.7,1.7,0,0,1-1.189-.3,1.374,1.374,0,0,1-.286-.977v-3.947h-2.4v4.149q0,.683-.249.876a1.471,1.471,0,0,1-.875.194H5.061q-.627,0-1.032-.037a1.7,1.7,0,0,1-.645-.166.706.706,0,0,1-.332-.341,1.474,1.474,0,0,1-.092-.581v-2.711H.563v3.043a4.309,4.309,0,0,0,.184,1.346,1.892,1.892,0,0,0,.628.9,2.81,2.81,0,0,0,1.181.507,8.965,8.965,0,0,0,1.828.157h8.105c.246,0,.495-.009.747-.028a3.973,3.973,0,0,0,.729-.119,2.323,2.323,0,0,0,.655-.286,1.87,1.87,0,0,0,.527-.508,1.543,1.543,0,0,0,.866.765,3.386,3.386,0,0,0,.967.167c.029,0,.055.009.085.009h12.7v-7.339h-2.4Zm77.6-8.021a1.321,1.321,0,1,0-.922-.388,1.259,1.259,0,0,0,.922.388m146.689,10.141h2.4V206.366h-2.4Zm-219.573,0h2.4V206.366h-2.4Zm-3.365-10.9a.709.709,0,0,1-.175-.48.676.676,0,0,1,.175-.47.776.776,0,0,1,.6-.194,2.854,2.854,0,0,1,.3.028,3.986,3.986,0,0,1,.489.1V206.2q-.2-.073-.489-.147a2.472,2.472,0,0,0-.617-.075,2.1,2.1,0,0,0-.738.13,1.919,1.919,0,0,0-.627.378,1.824,1.824,0,0,0-.442.617,2.105,2.105,0,0,0-.166.868,2.806,2.806,0,0,0,.046.451,1.18,1.18,0,0,0,.138.415h-.847v1.511h4.2v-1.511H29.437a.93.93,0,0,1-.709-.2m35.831,1.677a1.323,1.323,0,1,0-.922-.387,1.255,1.255,0,0,0,.922.387M8.086,221.321a1.324,1.324,0,1,0,.922.388,1.26,1.26,0,0,0-.922-.388" transform="translate(-0.499 -182.675)"/><path d="M2934.886,572.562l-9.9,4.776,4.473,2.15,7.114-3.43a1.94,1.94,0,0,0-1.685-3.5" transform="translate(-2594.057 -507.613)"/><path d="M2884,489.138l-22.327,10.768,4.472,2.152,19.541-9.424a1.941,1.941,0,0,0-1.686-3.5" transform="translate(-2537.909 -433.628)"/><path d="M2829.848,419.623l-31.493,15.188,4.473,2.152,28.706-13.844a1.941,1.941,0,0,0-1.686-3.5" transform="translate(-2481.755 -371.978)"/><path d="M2777.249,110.079a1.942,1.942,0,0,0-2.59-.905l-.3.145,1.676-7.366a1.94,1.94,0,0,0-3.784-.86l-2.362,10.381-2.689,1.3,4.8-21.08a1.94,1.94,0,0,0-3.783-.861l-5.485,24.1-2.689,1.3,7.115-31.264a1.94,1.94,0,1,0-3.783-.86l-7.8,34.28-2.689,1.3,9.019-39.623a1.941,1.941,0,0,0-3.784-.861l-9.7,42.64-13.374,6.45,4.473,2.152,11.405-5.5,25.431-12.265a1.941,1.941,0,0,0,.9-2.59" transform="translate(-2425.6 -68.895)"/><path d="M2790.592,28.337l1.1-4.84-13.332-16.7a1.941,1.941,0,0,0-3.033,2.422Z" transform="translate(-2460.958 -5.379)" fill="#009247"/><path d="M2871.782,42l1.1-4.84-4.964-6.219a1.94,1.94,0,1,0-3.033,2.421Z" transform="translate(-2540.384 -26.792)" fill="#009247"/><path d="M2449.326,45.339l1.1-4.84L2424.873,8.484a1.94,1.94,0,1,0-3.032,2.421l.25.313-7.741,0a1.94,1.94,0,0,0-.217,3.868,2.044,2.044,0,0,0,.219.012l10.835-.006,1.862,2.334-21.522.01a1.94,1.94,0,0,0-.218,3.868,1.794,1.794,0,0,0,.219.012l24.617-.012,1.863,2.334-31.923.016a1.94,1.94,0,0,0-.218,3.868,2.055,2.055,0,0,0,.22.012l35.016-.017,1.863,2.334-40.947.019a1.941,1.941,0,0,0-.217,3.869,2.052,2.052,0,0,0,.219.012l44.041-.021Z" transform="translate(-2123.22 -6.877)" fill="#009247"/><path d="M2722.2,30.711l1.1-4.84L2703.231.729A1.94,1.94,0,1,0,2700.2,3.15Z" transform="translate(-2394.328 0)" fill="#009247"/><path d="M2364.433,257l15.522-19.484-4.964,0L2361.4,254.585a1.94,1.94,0,1,0,3.035,2.418" transform="translate(-2093.859 -210.647)" fill="#ed1c24"/><path d="M2368.415,246.415a1.939,1.939,0,0,0,2.726-.308l6.815-8.554-4.963,0-4.887,6.134a1.941,1.941,0,0,0,.309,2.726" transform="translate(-2099.809 -210.676)" fill="#ed1c24"/><path d="M2398.75,237.487l-4.962,0-20.16,25.306a1.94,1.94,0,1,0,3.035,2.418Z" transform="translate(-2104.705 -210.618)" fill="#ed1c24"/><path d="M2460.8,282.466l-39.351-18.924-3.312-14.473,9.252-11.615-4.962,0-25.47,31.971a1.94,1.94,0,1,0,3.035,2.418l.2-.244,1.878,8.208a1.94,1.94,0,0,0,1.675,1.5,1.914,1.914,0,0,0,.649-.037,1.94,1.94,0,0,0,1.458-2.323l-2.568-11.225,1.861-2.335,4.9,21.4a1.938,1.938,0,0,0,1.674,1.5,1.976,1.976,0,0,0,.649-.037,1.941,1.941,0,0,0,1.459-2.324l-5.588-24.421,1.862-2.337,7.156,31.282a1.94,1.94,0,1,0,3.782-.865l-7.847-34.3,1.861-2.335,9.145,39.972a1.94,1.94,0,1,0,3.782-.864l-.1-.431,7.219,3.471a1.94,1.94,0,1,0,1.682-3.5l-10.008-4.813-.666-2.91,19.564,9.408a1.941,1.941,0,0,0,1.682-3.5l-22.353-10.748-.666-2.911,28.9,13.9a1.94,1.94,0,0,0,1.682-3.5l-31.689-15.24-.666-2.911,36.562,17.583a1.971,1.971,0,0,0,.625.18,1.941,1.941,0,0,0,1.057-3.677" transform="translate(-2125.395 -210.589)" fill="#ed1c24"/></g></svg>